<?xml version="1.0" encoding="UTF-8" standalone="no"?>
<!DOCTYPE svg PUBLIC "-//W3C//DTD SVG 1.0//EN" "http://www.w3.org/TR/2001/REC-SVG-20010904/DTD/svg10.dtd">
<!-- Generiert durch Microsoft Visio 11.0, SVG Export, v1.0 menu.svg Page-1 -->
<svg xmlns="http://www.w3.org/2000/svg" xmlns:xlink="http://www.w3.org/1999/xlink" xmlns:ev="http://www.w3.org/2001/xml-events"
		xmlns:v="http://schemas.microsoft.com/visio/2003/SVGExtensions/" width="8.26772in" height="11.6929in"
		viewBox="0 0 595.276 841.89" xml:space="preserve" color-interpolation-filters="sRGB" class="st4">
	<v:documentProperties v:langID="1031" v:metric="true" v:viewMarkup="false">
		<v:userDefs>
			<v:ud v:nameU="msvSubprocessMaster" v:prompt="" v:val="VT4(Box)"/>
			<v:ud v:nameU="msvNoAutoConnect" v:val="VT0(1):26"/>
		</v:userDefs>
	</v:documentProperties>

	<style type="text/css">
	<![CDATA[
		.st1 {fill:#d3d3ab;stroke:#164326;stroke-linecap:round;stroke-linejoin:round;stroke-width:0.24}
		.st2 {fill:#164326;font-family:Calibri;font-size:1.33333em}
		.st3 {fill:#164326;font-family:Calibri;font-size:1.5em}
		.st4 {fill:none;fill-rule:evenodd;font-size:12;overflow:visible;stroke-linecap:square;stroke-miterlimit:3}
	]]>
	</style>

	<g v:mID="0" v:index="1" v:groupContext="foregroundPage">
		<title>Zeichenblatt-1</title>
		<v:pageProperties v:drawingScale="0.0393701" v:pageScale="0.0393701" v:drawingUnits="24" v:shadowOffsetX="8.50394"
				v:shadowOffsetY="-8.50394"/>
		<g id="shape1-1" v:mID="1" v:groupContext="shape" transform="translate(240.945,-566.929)">
			<title>Feld</title>
			<desc>CONNECT</desc>
			<v:userDefs>
				<v:ud v:nameU="visVersion" v:val="VT0(14):26"/>
			</v:userDefs>
			<v:textBlock v:margins="rect(4,4,4,4)" v:tabSpace="42.5197"/>
			<v:textRect cx="56.6929" cy="799.37" width="113.39" height="85.0394"/>
			<rect x="0" y="756.85" width="113.386" height="85.0394" class="st1"/>
			<text x="24.73" y="804.17" class="st2" v:langID="1031"><v:paragraph v:horizAlign="1"/><v:tabList/>CONNECT</text>		</g>
		<g id="shape2-4" v:mID="2" v:groupContext="shape" transform="translate(18,-566.929)">
			<title>Feld.2</title>
			<desc>IMPORT</desc>
			<v:userDefs>
				<v:ud v:nameU="visVersion" v:val="VT0(14):26"/>
			</v:userDefs>
			<v:textBlock v:margins="rect(4,4,4,4)" v:tabSpace="42.5197"/>
			<v:textRect cx="56.6929" cy="799.37" width="113.39" height="85.0394"/>
			<rect x="0" y="756.85" width="113.386" height="85.0394" class="st1"/>
			<text x="30.17" y="804.17" class="st2" v:langID="1031"><v:paragraph v:horizAlign="1"/><v:tabList/>IMPORT</text>		</g>
		<g id="shape3-7" v:mID="3" v:groupContext="shape" transform="translate(311.811,-184.252)">
			<title>Feld.3</title>
			<desc>EXPORT</desc>
			<v:userDefs>
				<v:ud v:nameU="visVersion" v:val="VT0(14):26"/>
			</v:userDefs>
			<v:textBlock v:margins="rect(4,4,4,4)" v:tabSpace="42.5197"/>
			<v:textRect cx="56.6929" cy="799.37" width="113.39" height="85.0394"/>
			<rect x="0" y="756.85" width="113.386" height="85.0394" class="st1"/>
			<text x="30.96" y="804.17" class="st2" v:langID="1031"><v:paragraph v:horizAlign="1"/><v:tabList/>EXPORT</text>		</g>
		<g id="shape4-10" v:mID="4" v:groupContext="shape" transform="translate(463.89,-396.85)">
			<title>Feld.4</title>
			<desc>STEER</desc>
			<v:userDefs>
				<v:ud v:nameU="visVersion" v:val="VT0(14):26"/>
			</v:userDefs>
			<v:textBlock v:margins="rect(4,4,4,4)" v:tabSpace="42.5197"/>
			<v:textRect cx="56.6929" cy="799.37" width="113.39" height="85.0394"/>
			<rect x="0" y="756.85" width="113.386" height="85.0394" class="st1"/>
			<text x="34.5" y="804.77" class="st3" v:langID="1031"><v:paragraph v:horizAlign="1"/><v:tabList/>STEER</text>		</g>
		<g id="shape5-13" v:mID="5" v:groupContext="shape" transform="translate(170.079,-184.252)">
			<title>Feld.5</title>
			<desc>STATISTICS</desc>
			<v:userDefs>
				<v:ud v:nameU="visVersion" v:val="VT0(14):26"/>
			</v:userDefs>
			<v:textBlock v:margins="rect(4,4,4,4)" v:tabSpace="42.5197"/>
			<v:textRect cx="56.6929" cy="799.37" width="113.39" height="85.0394"/>
			<rect x="0" y="756.85" width="113.386" height="85.0394" class="st1"/>
			<text x="21.04" y="804.17" class="st2" v:langID="1031"><v:paragraph v:horizAlign="1"/><v:tabList/>STATISTICS</text>		</g>
		<g id="shape6-16" v:mID="6" v:groupContext="shape" transform="translate(240.945,-396.85)">
			<title>Feld.6</title>
			<desc>MAP</desc>
			<v:userDefs>
				<v:ud v:nameU="visVersion" v:val="VT0(14):26"/>
			</v:userDefs>
			<v:textBlock v:margins="rect(4,4,4,4)" v:tabSpace="42.5197"/>
			<v:textRect cx="56.6929" cy="799.37" width="113.39" height="85.0394"/>
			<rect x="0" y="756.85" width="113.386" height="85.0394" class="st1"/>
			<text x="41.09" y="804.17" class="st2" v:langID="1031"><v:paragraph v:horizAlign="1"/><v:tabList/>MAP</text>		</g>
		<g id="shape7-19" v:mID="7" v:groupContext="shape" transform="translate(463.89,-566.929)">
			<title>Feld.7</title>
			<desc>SIMULATION</desc>
			<v:userDefs>
				<v:ud v:nameU="visVersion" v:val="VT0(14):26"/>
			</v:userDefs>
			<v:textBlock v:margins="rect(4,4,4,4)" v:tabSpace="42.5197"/>
			<v:textRect cx="56.6929" cy="799.37" width="113.39" height="85.0394"/>
			<rect x="0" y="756.85" width="113.386" height="85.0394" class="st1"/>
			<text x="14.66" y="804.17" class="st2" v:langID="1031"><v:paragraph v:horizAlign="1"/><v:tabList/>SIMULATION</text>		</g>
		<g id="shape8-22" v:mID="8" v:groupContext="shape" transform="translate(1111.18,274.961) rotate(90)">
			<title>1D- Doppelpfeil</title>
			<v:userDefs>
				<v:ud v:nameU="visVersion" v:val="VT0(14):26"/>
			</v:userDefs>
			<path d="M14.17 799.37 L14.17 785.2 L0 813.54 L14.17 841.89 L14.17 827.72 L70.87 827.72 L70.87 841.89 L85.04 813.54 L70.87
						 785.2 L70.87 799.37 L14.17 799.37 Z" class="st1"/>
		</g>
		<g id="shape9-24" v:mID="9" v:groupContext="shape" transform="translate(18,-396.85)">
			<title>Feld.9</title>
			<desc>ÖFFNEN</desc>
			<v:userDefs>
				<v:ud v:nameU="visVersion" v:val="VT0(14):26"/>
			</v:userDefs>
			<v:textBlock v:margins="rect(4,4,4,4)" v:tabSpace="42.5197"/>
			<v:textRect cx="56.6929" cy="799.37" width="113.39" height="85.0394"/>
			<rect x="0" y="756.85" width="113.386" height="85.0394" class="st1"/>
			<text x="29.81" y="804.17" class="st2" v:langID="1031"><v:paragraph v:horizAlign="1"/><v:tabList/>ÖFFNEN</text>		</g>
		<g id="shape10-27" v:mID="10" v:groupContext="shape" transform="translate(354.331,-411.024)">
			<title>1D- Doppelpfeil.10</title>
			<v:userDefs>
				<v:ud v:nameU="visVersion" v:val="VT0(14):26"/>
			</v:userDefs>
			<path d="M14.17 799.37 L14.17 785.2 L0 813.54 L14.17 841.89 L14.17 827.72 L95.39 827.72 L95.39 841.89 L109.56 813.54
						 L95.39 785.2 L95.39 799.37 L14.17 799.37 Z" class="st1"/>
		</g>
		<g id="shape11-29" v:mID="11" v:groupContext="shape" transform="translate(131.386,-411.024)">
			<title>1D- Doppelpfeil.11</title>
			<v:userDefs>
				<v:ud v:nameU="visVersion" v:val="VT0(14):26"/>
			</v:userDefs>
			<path d="M14.17 799.37 L14.17 785.2 L0 813.54 L14.17 841.89 L14.17 827.72 L95.39 827.72 L95.39 841.89 L109.56 813.54
						 L95.39 785.2 L95.39 799.37 L14.17 799.37 Z" class="st1"/>
		</g>
		<g id="shape12-31" v:mID="12" v:groupContext="shape" transform="translate(131.386,-581.102)">
			<title>1D- Doppelpfeil.12</title>
			<v:userDefs>
				<v:ud v:nameU="visVersion" v:val="VT0(14):26"/>
			</v:userDefs>
			<path d="M14.17 799.37 L14.17 785.2 L0 813.54 L14.17 841.89 L14.17 827.72 L95.39 827.72 L95.39 841.89 L109.56 813.54
						 L95.39 785.2 L95.39 799.37 L14.17 799.37 Z" class="st1"/>
		</g>
		<g id="shape13-33" v:mID="13" v:groupContext="shape" transform="translate(354.331,-581.102)">
			<title>1D- Doppelpfeil.13</title>
			<v:userDefs>
				<v:ud v:nameU="visVersion" v:val="VT0(14):26"/>
			</v:userDefs>
			<path d="M14.17 799.37 L14.17 785.2 L0 813.54 L14.17 841.89 L14.17 827.72 L95.39 827.72 L95.39 841.89 L109.56 813.54
						 L95.39 785.2 L95.39 799.37 L14.17 799.37 Z" class="st1"/>
		</g>
		<g id="shape14-35" v:mID="14" v:groupContext="shape" transform="translate(-547.087,572.598) rotate(-90)">
			<title>1D- Doppelpfeil.14</title>
			<v:userDefs>
				<v:ud v:nameU="visVersion" v:val="VT0(14):26"/>
			</v:userDefs>
			<path d="M14.17 799.37 L14.17 785.2 L0 813.54 L14.17 841.89 L14.17 827.72 L113.39 827.72 L113.39 841.89 L127.56 813.54
						 L113.39 785.2 L113.39 799.37 L14.17 799.37 Z" class="st1"/>
		</g>
		<g id="shape15-37" v:mID="15" v:groupContext="shape" transform="translate(-481.89,572.598) rotate(-90)">
			<title>1D- Doppelpfeil.15</title>
			<v:userDefs>
				<v:ud v:nameU="visVersion" v:val="VT0(14):26"/>
			</v:userDefs>
			<path d="M14.17 799.37 L14.17 785.2 L0 813.54 L14.17 841.89 L14.17 827.72 L113.39 827.72 L113.39 841.89 L127.56 813.54
						 L113.39 785.2 L113.39 799.37 L14.17 799.37 Z" class="st1"/>
		</g>
	</g>
</svg>
